<svg width="131" height="48" viewBox="0 0 131 48" fill="none" xmlns="http://www.w3.org/2000/svg">
<g clip-path="url(#clip0_1_810)">
<path d="M24.0024 48.0024C37.2585 48.0024 48.0048 37.2561 48.0048 24C48.0048 10.7439 37.2585 -0.00237846 24.0024 -0.00237846C10.7462 -0.00237846 0 10.7439 0 24C0 37.2561 10.7462 48.0024 24.0024 48.0024Z" fill="#0060E6"/>
<path d="M12.0011 27.1851H16.4896C16.2339 24.0228 14.3365 22.6979 12.0035 22.6979L12.0011 27.1851Z" fill="white"/>
<path d="M12.0011 16.6013V21.5686C12.6504 21.5543 13.2682 21.2863 13.7223 20.8221C14.1765 20.3579 14.4308 19.7343 14.4308 19.0849C14.4308 18.4355 14.1765 17.8119 13.7223 17.3477C13.2682 16.8835 12.6504 16.6155 12.0011 16.6013Z" fill="white"/>
<path d="M29.2743 27.1851C28.9731 23.4647 26.7445 21.913 24.0022 21.913C21.2599 21.913 19.0301 23.4731 18.7301 27.1851H29.2743Z" fill="white"/>
<path d="M26.9197 17.865C26.9197 18.4423 26.7485 19.0066 26.4277 19.4867C26.107 19.9667 25.6511 20.3407 25.1177 20.5616C24.5843 20.7825 23.9974 20.8402 23.4312 20.7275C22.865 20.6148 22.3449 20.3367 21.9368 19.9284C21.5286 19.5201 21.2507 18.9999 21.1383 18.4337C21.0258 17.8674 21.0837 17.2805 21.3048 16.7472C21.5259 16.2139 21.9002 15.7582 22.3803 15.4376C22.8605 15.117 23.4249 14.9461 24.0022 14.9463C24.3854 14.9463 24.7649 15.0218 25.119 15.1685C25.473 15.3152 25.7947 15.5302 26.0656 15.8012C26.3365 16.0723 26.5514 16.394 26.698 16.7481C26.8445 17.1023 26.9199 17.4818 26.9197 17.865Z" fill="white"/>
<path d="M31.5163 27.1851H36.0035V22.6979C33.6693 22.6979 31.7719 24.0228 31.5163 27.1851ZM36.0035 21.5686V16.6013C35.6728 16.594 35.3439 16.6529 35.0362 16.7744C34.7285 16.896 34.4482 17.0777 34.2117 17.3091C33.9752 17.5404 33.7873 17.8167 33.6591 18.1216C33.5308 18.4266 33.4647 18.7541 33.4647 19.0849C33.4647 19.4157 33.5308 19.7432 33.6591 20.0482C33.7873 20.3531 33.9752 20.6294 34.2117 20.8607C34.4482 21.0921 34.7285 21.2739 35.0362 21.3954C35.3439 21.517 35.6728 21.5758 36.0035 21.5686Z" fill="white"/>
<path d="M35.3722 33.0537C35.7005 31.8744 35.9119 30.6657 36.0035 29.4449H12.0011C12.0925 30.6655 12.3031 31.8742 12.63 33.0537H35.3722Z" fill="white"/>
<path d="M60.8208 32.9289V15.3591H64.6468V29.5325H71.3435V32.9289H60.8208Z" fill="#666666"/>
<path d="M72.8809 26.3078C72.8809 22.0522 75.1971 19.4095 79.0747 19.4095C82.9523 19.4095 85.2673 22.0498 85.2673 26.3078C85.2673 30.5659 82.9511 33.2313 79.0747 33.2313C75.1983 33.2313 72.8809 30.5623 72.8809 26.3078ZM81.3909 27.6676V24.9733C81.3909 23.3111 80.534 22.3546 79.0747 22.3546C77.6153 22.3546 76.7584 23.3147 76.7584 24.9733V27.6676C76.7584 29.3285 77.6141 30.285 79.0747 30.285C80.5352 30.285 81.3909 29.3285 81.3909 27.6676Z" fill="#666666"/>
<path d="M92.9982 38.267C88.4162 38.267 86.7288 37.1089 86.7288 35.1947C86.7288 33.7342 87.6601 32.8785 89.1962 32.6745V32.4008C87.9373 32.174 87.2832 31.2175 87.2832 30.0846C87.2832 28.6997 88.517 27.9952 89.7495 27.7432V27.6424C88.1641 26.9115 87.3829 25.577 87.3829 23.8656C87.3829 21.1965 89.2466 19.4095 93.0486 19.4095C93.8033 19.3961 94.5564 19.4808 95.2892 19.6616V19.1575C95.2892 17.7726 96.0189 17.1689 97.2778 17.1689H99.3696V19.9376H96.4474V20.0888C97.9823 20.8197 98.7132 22.1782 98.7132 23.8656C98.7132 26.5058 96.8746 28.246 93.0486 28.246C92.2596 28.2531 91.4728 28.16 90.7072 27.9688C90.5284 28.081 90.3813 28.237 90.2799 28.4221C90.1784 28.6071 90.126 28.8151 90.1275 29.0261C90.1275 29.6562 90.5812 30.0342 91.7141 30.0342H95.5401C98.7636 30.0342 100.147 31.4431 100.147 33.8854C100.147 36.6805 98.3855 38.267 92.9982 38.267ZM94.6088 33.2061H90.0771C89.769 33.5229 89.5968 33.9475 89.5971 34.3894C89.5971 35.3495 90.352 35.7996 92.3658 35.7996H93.8767C95.8905 35.7996 96.6454 35.3459 96.6454 34.3894C96.6478 33.6334 96.0945 33.2061 94.6088 33.2061ZM95.2388 23.9916V23.6892C95.2388 22.5311 94.508 21.877 93.0486 21.877C91.5893 21.877 90.8572 22.5311 90.8572 23.6892V23.9916C90.8572 25.1497 91.5881 25.8038 93.0486 25.8038C94.5092 25.8038 95.2388 25.1497 95.2388 23.9916Z" fill="#666666"/>
<path d="M101.41 27.0627V23.4371H108.888V27.0627H101.41Z" fill="#666666"/>
<path d="M111.655 16.4633V15.91C111.655 14.8527 112.309 14.0714 113.816 14.0714C115.322 14.0714 115.976 14.8527 115.976 15.91V16.4633C115.976 17.5206 115.322 18.3018 113.816 18.3018C112.309 18.3018 111.655 17.5194 111.655 16.4633ZM111.958 19.7108H115.684V32.9289H111.958V19.7108Z" fill="#666666"/>
<path d="M119.158 32.9289V19.7108H122.885V21.9526H123.036C123.516 20.5677 124.621 19.4095 126.711 19.4095C129.405 19.4095 130.84 21.3225 130.84 24.6457V32.9265H127.12V24.9481C127.12 23.2619 126.64 22.4278 125.281 22.4278C124.074 22.4278 122.891 23.0579 122.891 24.366V32.9289H119.158Z" fill="#666666"/>
</g>
<defs>
<clipPath id="clip0_1_810">
<rect width="130.841" height="48.0048" fill="white" transform="translate(0 -0.00237846)"/>
</clipPath>
</defs>
</svg>
